# xmcd
#
# Track frame offsets:
#	150
#	17405
#	39292
#	56430
#	78245
#
# Disc length: 1271 seconds
#
# Revision: 1
# Processed by: cddbd v1.5PL3 Copyright (c) Steve Scherf et al.
# Submitted via: EasyCDDAExtractor 6.5.5.1
#
DISCID=2904f505
DTITLE=Daizz - Didn't I (Maxi)
DYEAR=1900
DGENRE=RnB
TTITLE0=Didn't I (Full Version)
TTITLE1=Didn't I (Seven Gemini Remix)
TTITLE2=Didn't I (Full Version Instrumental)
TTITLE3=Didn't I (Seven Gemini Remix Instrumental)
TTITLE4=Didn't I (Full Version Acappella)
EXTD=
EXTT0=
EXTT1=
EXTT2=
EXTT3=
EXTT4=
PLAYORDER=
